<svg width="174" height="111" viewBox="0 0 174 111" fill="none" xmlns="http://www.w3.org/2000/svg">
<rect width="4.09177" height="111.296" transform="matrix(0.812098 0.583521 0.583521 -0.812098 103.112 142.758)" fill="white"/>
<rect x="74.8132" y="145.213" width="4.09177" height="111.296" transform="rotate(144.301 74.8132 145.213)" fill="white"/>
<rect x="3.80109" y="48.679" width="4.09177" height="41.9607" transform="rotate(-158.278 3.80109 48.679)" fill="white"/>
<rect width="4.09177" height="41.9607" transform="matrix(0.928989 -0.370107 -0.370107 -0.928989 83.4531 47.0422)" fill="white"/>
<rect x="90.5465" y="47.0422" width="4.09177" height="41.9607" transform="rotate(-158.278 90.5465 47.0422)" fill="white"/>
<rect x="22.9137" y="4.0918" width="4.09177" height="41.9607" transform="rotate(-90 22.9137 4.0918)" fill="white"/>
<rect x="106.386" y="4.0918" width="4.09177" height="41.9607" transform="rotate(-90 106.386 4.0918)" fill="white"/>
<rect width="4.09177" height="41.9607" transform="matrix(0.928989 -0.370107 -0.370107 -0.928989 170.199 48.679)" fill="white"/>
</svg>
