<svg width="214" height="67" viewBox="0 0 214 67" fill="none" xmlns="http://www.w3.org/2000/svg">
<rect x="0.75" y="0.75" width="212.5" height="65.5" rx="32.75" fill="white" stroke="#D9324A" stroke-width="1.5"/>
<path d="M65 41.52V22.86H68.8V41.52H65ZM58.42 30.14C61.78 31.8 63.38 35.14 63.28 40.38H59.6C59.76 37.64 59.22 35.26 57.68 33.86C56.56 37.26 54.32 39.56 50.64 40.68V37C53.42 35.64 54.78 32.64 54.78 27.96V23.54H58.56V27.4C58.56 28.36 58.52 29.28 58.42 30.14ZM88.3 22.86V26.54H90.1V29.82H88.3V33.72H84.5V22.86H88.3ZM77.34 30.64C75.96 32.48 73.66 33.68 71.08 33.88V30.88C73.54 30.38 75.1 28.76 75.1 26.52V26.38H71.32V23.38H82.58V26.38H78.7V26.52C78.7 27.02 78.64 27.5 78.56 27.96C81.4 28.28 83.2 30.34 83.14 33.42H79.6C79.58 32.04 78.62 30.78 77.34 30.64ZM84.48 37.46H72V34.54H88.32V41.52H84.48V37.46ZM94.74 22.84H98.6V24.94H102.78V27.88H101.5C101.76 28.42 101.9 29.06 101.9 29.78V36.04C101.9 39.52 99.74 41.14 96.68 41.14C93.64 41.14 91.46 39.52 91.46 36.04V29.78C91.46 29.06 91.6 28.42 91.86 27.88H90.58V24.94H94.74V22.84ZM108.2 29.84H110.1V33.12H108.2V41.52H104.4V22.86H108.2V29.84ZM98.3 36.26V29.4C98.3 28.18 97.66 27.72 96.68 27.72C95.7 27.72 95.04 28.18 95.04 29.4V36.26C95.04 37.48 95.7 38.02 96.68 38.02C97.66 38.02 98.3 37.48 98.3 36.26ZM128.8 41.52H125V22.86H128.8V41.52ZM111.26 40.92V37.42C115.3 36.82 118.56 33.7 118.56 28.34V26.74H111.36V23.5H122.3V28.2C122.3 35.86 117.42 40.48 111.26 40.92Z" fill="#D9324A"/>
<path d="M162.226 24.7735C161.664 24.2113 160.997 23.7652 160.263 23.4609C159.528 23.1566 158.741 23 157.946 23C157.151 23 156.364 23.1566 155.63 23.4609C154.895 23.7652 154.228 24.2113 153.666 24.7735L152.5 25.9398L151.333 24.7735C150.198 23.6383 148.659 23.0006 147.053 23.0006C145.448 23.0006 143.908 23.6383 142.773 24.7735C141.638 25.9087 141 27.4483 141 29.0537C141 30.6591 141.638 32.1988 142.773 33.334L143.939 34.5003L152.5 43.0607L161.06 34.5003L162.226 33.334C162.789 32.772 163.235 32.1047 163.539 31.3703C163.843 30.6359 164 29.8487 164 29.0537C164 28.2588 163.843 27.4716 163.539 26.7372C163.235 26.0028 162.789 25.3355 162.226 24.7735Z" fill="#D9324A"/>
</svg>
