<svg width="251" height="218" viewBox="0 0 251 218" fill="none" xmlns="http://www.w3.org/2000/svg">
<path d="M151.607 36.7819C178.781 46.7977 202.186 59.0587 218.058 70.7736C225.997 76.6332 232.028 82.3391 235.708 87.5392C239.4 92.755 240.654 97.3537 239.284 101.071C237.914 104.787 233.975 107.472 227.782 109.045C221.607 110.613 213.316 111.04 203.473 110.345C183.794 108.957 158.031 103.095 130.857 93.0796C103.682 83.0637 80.2778 70.8028 64.4055 59.0878C56.4665 53.2283 50.4353 47.5224 46.7551 42.3223C43.0639 37.1065 41.81 32.5077 43.18 28.7909C44.5499 25.0741 48.4884 22.3892 54.6816 20.8166C60.8564 19.2488 69.1479 18.8219 78.9907 19.5163C98.6692 20.9047 124.433 26.766 151.607 36.7819Z" stroke="white"/>
<path d="M135.698 79.9435C162.872 89.9594 186.277 102.22 202.149 113.935C210.088 119.795 216.12 125.501 219.8 130.701C223.491 135.917 224.745 140.515 223.375 144.232C222.005 147.949 218.067 150.634 211.873 152.207C205.699 153.774 197.407 154.201 187.564 153.507C167.886 152.118 142.122 146.257 114.948 136.241C87.7738 126.225 64.3691 113.964 48.4968 102.249C40.5578 96.3899 34.5266 90.684 30.8464 85.4839C27.1552 80.2681 25.9013 75.6694 27.2713 71.9525C28.6412 68.2357 32.5797 65.5508 38.773 63.9782C44.9477 62.4104 53.2392 61.9836 63.082 62.678C82.7605 64.0663 108.524 69.9277 135.698 79.9435Z" stroke="white"/>
<path d="M119.444 124.044C146.619 134.059 170.023 146.32 185.896 158.035C193.834 163.895 199.866 169.601 203.546 174.801C207.237 180.017 208.491 184.615 207.121 188.332C205.751 192.049 201.813 194.734 195.619 196.307C189.445 197.874 181.153 198.301 171.31 197.607C151.632 196.219 125.868 190.357 98.6941 180.341C71.5199 170.325 48.1152 158.064 32.2429 146.35C24.3039 140.49 18.2727 134.784 14.5925 129.584C10.9013 124.368 9.64741 119.769 11.0174 116.053C12.3873 112.336 16.3258 109.651 22.519 108.078C28.6938 106.51 36.9853 106.084 46.8281 106.778C66.5066 108.166 92.27 114.028 119.444 124.044Z" stroke="white"/>
</svg>
