<svg width="412" height="56" viewBox="0 0 412 56" fill="none" xmlns="http://www.w3.org/2000/svg">
<rect x="362.889" y="41.7396" width="33.5731" height="4.53691" transform="rotate(180 362.889 41.7396)" fill="white"/>
<rect x="27.2217" y="36.2954" width="27.2214" height="4.53691" transform="rotate(180 27.2217 36.2954)" fill="white"/>
<path d="M81.2109 37.2027L81.2109 10.435L85.2942 10.435L85.2942 38.1101L81.2109 37.2027Z" fill="white"/>
<rect x="47.6378" y="42.647" width="27.2214" height="4.08322" transform="rotate(-90 47.6378 42.647)" fill="white"/>
<rect x="86.6553" y="37.6562" width="27.2214" height="4.08322" transform="rotate(-90 86.6553 37.6562)" fill="white"/>
<rect x="407.351" y="47.6375" width="35.3879" height="4.08322" transform="rotate(-90 407.351 47.6375)" fill="white"/>
<rect x="109.756" y="40.918" width="32.6657" height="4.08322" transform="rotate(-90 109.756 40.918)" fill="white"/>
<rect x="135.339" y="41.2617" width="33.0094" height="4.12617" transform="rotate(-90 135.339 41.2617)" fill="white"/>
<rect x="250.891" y="31.3047" width="29.9436" height="4.08322" fill="white"/>
<rect x="158.445" y="38.1959" width="29.9436" height="4.08322" transform="rotate(-90 158.445 38.1959)" fill="white"/>
<rect x="321.149" y="49.4524" width="37.2026" height="4.08322" transform="rotate(-90 321.149 49.4524)" fill="white"/>
<rect x="381.944" y="37.6564" width="25.4067" height="4.53691" transform="rotate(-90 381.944 37.6564)" fill="white"/>
<rect x="53.082" y="42.647" width="27.2214" height="4.08322" transform="rotate(-90 53.082 42.647)" fill="white"/>
<rect x="342.927" y="38.1101" width="8.16643" height="4.53691" transform="rotate(-90 342.927 38.1101)" fill="white"/>
<rect x="11.3424" y="34.9342" width="6.80536" height="4.53691" transform="rotate(-90 11.3424 34.9342)" fill="white"/>
<rect x="82.5718" y="22.231" width="5.44429" height="4.08322" fill="white"/>
<path d="M243.738 26H244.739L244.742 11H248.736V48H244.735L244.738 30.083H243.738V48H239.738L239.741 11H243.738V26Z" fill="#FF3052"/>
<rect x="404.175" y="28.1289" width="5.44429" height="4.08322" fill="white"/>
<path d="M217.068 38.0283H213.01V29.9121H209.357L209.358 26.2607H213.01V24.2314H209.357L209.358 20.5801H213.01L213.009 12.0576H217.068V38.0283Z" fill="#FF3052"/>
<rect x="161.968" y="19.5087" width="5.44429" height="4.08322" fill="white"/>
<rect x="324.325" y="27.2214" width="5.44429" height="4.08322" fill="white"/>
<rect x="48.9989" y="27.2214" width="5.44429" height="4.08322" fill="white"/>
<path d="M117.007 16.3328H121.662H125.91L133.385 16.3328V19.7808H129.592C130.167 20.2406 131.42 20.6428 132.006 22.1944C132.705 24.0455 132.064 29.7497 132.006 31.3588H127.499C127.614 30.0371 128.404 24.0147 127.714 22.9113C127.025 21.8079 124.311 21.3234 123.041 22.1944L120.283 29.9435H115.918L120.283 19.7808H117.007V16.3328Z" fill="white"/>
<path d="M68.3771 0C73.09 0 73.8977 4.05906 74.0324 7.79785C74.1401 10.789 71.7434 16.5938 70.5314 19.1221L71.8781 20.7246C72.7758 21.508 75.1103 23.2031 77.2648 23.7158C79.4187 24.2283 80.9445 23.0038 81.4387 22.3271L85.7482 23.9287C85.1647 25.0682 82.7583 27.3686 77.8029 27.4541C72.8478 27.5394 69.1848 24.072 67.9728 22.3271C67.6581 22.755 66.4375 24.0796 64.0685 25.959C61.6986 27.8391 57.8739 28.4512 56.258 28.5225V24.7842C57.8739 24.7842 59.8939 23.9288 61.3752 23.0742C62.8562 22.2195 65.414 19.1227 65.1457 18.9082C64.8764 18.6946 62.1833 12.2846 61.6447 7.79785C61.1063 3.31139 63.6643 4.55651e-05 68.3771 0ZM67.7043 3.8457C66.8862 3.8457 66.2228 4.26311 66.2228 6.62305C66.2229 8.98302 67.7043 14.8486 67.7043 14.8486C67.7094 14.8283 69.1857 8.97892 69.1857 6.62305C69.1857 4.26336 68.5222 3.84579 67.7043 3.8457Z" fill="white"/>
<path d="M363.864 34.6599L369.164 14.8542H373.482L372.108 21.4561C372.959 21.5784 375.131 22.2997 377.016 24.2069C378.9 26.1141 378.848 31.9702 378.586 34.6599H374.071V30.0752C374.071 26.8476 371.978 25.5517 370.931 25.3072L368.183 34.6599H363.864Z" fill="white"/>
<path d="M336.575 24.0819V18.8644C338.692 17.957 344.197 16.4599 349.278 17.7302C354.36 19.0005 354.269 25.5186 353.588 28.6188H349.278C349.656 26.6528 349.868 22.494 347.69 21.5866C345.513 20.6792 339.373 22.872 336.575 24.0819Z" fill="white"/>
<path d="M4.99072 22.2672V17.0497C7.10795 16.1424 12.6127 14.6452 17.6941 15.9155C22.7754 17.1858 22.6847 23.7039 22.0041 26.8041H17.6941C18.0721 24.8381 18.2839 20.6793 16.1061 19.7719C13.9284 18.8645 7.78848 21.0573 4.99072 22.2672Z" fill="white"/>
<path d="M45.8231 23.1383V18.6014H38.1103C34.9345 18.9039 28.5828 20.643 28.5828 27.9021C28.5828 35.1612 34.9345 37.4296 39.2446 37.6565H47.6378V33.1195H39.2446C37.4298 33.1195 33.1197 31.5316 33.1197 27.9021C33.1197 24.2726 37.5054 23.1383 39.2446 23.1383H45.8231Z" fill="white"/>
<path d="M15.8794 39.0175C20.3895 39.0175 24.0462 42.6735 24.0464 47.1835C24.0464 51.6937 20.3896 55.3505 15.8794 55.3505H11.3423C6.83228 55.3502 3.17627 51.6935 3.17627 47.1835C3.1765 42.6736 6.83242 39.0177 11.3423 39.0175H15.8794ZM12.3794 42.912C10.1007 42.912 8.25257 44.7593 8.25244 47.038C8.25244 49.3168 10.1006 51.1639 12.3794 51.1639H14.855C17.1337 51.1638 18.981 49.3167 18.981 47.038C18.9808 44.7594 17.1336 42.9121 14.855 42.912H12.3794Z" fill="white"/>
<path d="M85.3334 42.627C85.3334 46.6468 82.0749 49.9061 78.0551 49.9062C74.0351 49.9062 70.7758 46.6469 70.7758 42.627L70.7758 38.584C70.7758 34.564 74.0351 31.3047 78.0551 31.3047C82.0749 31.3049 85.3334 34.5641 85.3334 38.584L85.3334 42.627ZM81.6986 39.1982C81.6984 37.1475 80.0356 35.4854 77.9847 35.4854C75.934 35.4855 74.272 37.1475 74.2719 39.1982L74.2719 41.6738C74.2719 43.7247 75.9339 45.3876 77.9847 45.3877C80.0357 45.3877 81.6986 43.7248 81.6986 41.6738L81.6986 39.1982Z" fill="white"/>
<path d="M107.564 26.7478C107.564 30.7678 104.305 34.0271 100.285 34.0271C96.2653 34.0269 93.0067 30.7676 93.0067 26.7478L93.0067 22.7048C93.0067 18.685 96.2653 15.4258 100.285 15.4255C104.305 15.4255 107.564 18.6849 107.564 22.7048L107.564 26.7478ZM103.567 23.1062C103.567 21.2834 102.089 19.8055 100.266 19.8054C98.4435 19.8054 96.9659 21.2833 96.9657 23.1062L96.9657 25.5818C96.9657 27.4048 98.4434 28.8835 100.266 28.8835C102.089 28.8834 103.567 27.4048 103.567 25.5818L103.567 23.1062Z" fill="white"/>
<path d="M405.122 31.7383C405.122 35.7582 401.862 39.0176 397.842 39.0176C393.823 39.0174 390.564 35.7581 390.564 31.7383L390.564 27.6953C390.564 23.6755 393.823 20.4162 397.842 20.416C401.862 20.416 405.122 23.6754 405.122 27.6953L405.122 31.7383ZM401.906 28.8096C401.906 26.6798 400.179 24.9531 398.049 24.9531C395.92 24.9533 394.193 26.6798 394.193 28.8096L394.193 31.0781C394.193 33.2077 395.92 34.9344 398.049 34.9346C400.179 34.9346 401.906 33.2078 401.906 31.0781L401.906 28.8096Z" fill="white"/>
<path d="M154.416 27.1257H156.07V31.3044H142.005V15.4255H156.07L154.416 27.1257ZM146.542 19.5085V25.8601H150.626V19.5085H146.542Z" fill="white"/>
<path d="M147.45 39.9248L151.018 37.5481C151.4 38.2637 151.639 40.5784 155.144 43.7373C158.279 46.5624 162.337 46.7546 164.69 45.8004V50.3392C162.528 50.6573 157.62 51.1645 153.348 48.0912C150.206 45.8312 147.958 41.7536 147.45 39.9248Z" fill="white"/>
<path d="M255.882 39.9249L259.285 38.1101C259.666 38.8257 260.057 41.58 263.368 44.0081C266.771 46.5034 270.77 46.777 273.122 45.8229V50.1329C270.96 50.451 266.317 50.928 261.78 48.0913C258.498 46.0395 256.391 41.7537 255.882 39.9249Z" fill="white"/>
<path d="M253.613 16.7867L257.016 14.9719C257.398 15.6875 257.788 18.4418 261.099 20.8699C264.502 23.3652 268.501 23.6388 270.854 22.6847V26.9947C268.692 27.3128 264.048 27.7898 259.511 24.9531C256.23 22.9013 254.122 18.6155 253.613 16.7867Z" fill="white"/>
<path d="M203.254 41.7394L206.656 39.9247C207.038 40.6403 207.428 43.3946 210.739 45.8227C214.142 48.318 218.141 48.5916 220.494 47.6374V51.9475C218.332 52.2655 213.688 52.7426 209.152 49.9059C205.87 47.8541 203.762 43.5683 203.254 41.7394Z" fill="#FF3052"/>
<path d="M235.035 15.2125C234.849 15.2703 234.679 15.483 233.303 16.5162C232.24 17.3145 230.531 18.6951 229.33 19.7887C230.948 19.268 234.723 18.9143 236.874 21.6676C239.563 25.1096 238.532 29.206 237.374 31.0504C236.263 32.8186 232.443 35.6089 227.903 32.1198C224.272 29.3282 225.333 24.0581 226.317 21.7721C225.753 22.1324 224.853 22.5561 223.478 23.5387C222.41 24.3012 221.283 25.9678 220.334 26.8805L218.69 23.9889C218.697 23.7388 220.22 22.6284 221.604 21.6676C224.068 19.9554 225.095 19.6108 226.534 18.8356C226.985 18.0976 227.286 17.6624 229.33 15.9215C230.119 15.2497 230.751 14.4961 232.36 13.6813L235.035 15.2125ZM233.84 23.9264C232.948 23.461 232.334 24.1131 232.135 24.5045C231.935 24.113 231.323 23.4611 230.432 23.9264C229.534 24.3949 229.406 25.6508 229.455 26.2203C229.512 26.8889 230.012 28.0751 230.676 28.8561C231.33 29.6256 231.912 30.2689 232.131 30.5055V30.5153C232.132 30.5138 232.133 30.5119 232.135 30.5104C232.136 30.512 232.138 30.5137 232.14 30.5153V30.5055C232.359 30.2693 232.941 29.6261 233.596 28.8561C234.259 28.0751 234.758 26.8889 234.815 26.2203C234.864 25.6509 234.737 24.3951 233.84 23.9264Z" fill="#FF3052"/>
<path d="M197.187 16.2893C197.576 15.5293 200.775 10.3234 205.067 11.4007C209.339 12.4732 209.848 17.0289 209.602 19.7835C209.467 21.6534 208.059 26.6529 204.004 30.8909C201.604 33.4005 199.336 35.1063 197.628 36.1985C199.198 38.2523 200.376 39.6399 200.376 39.6399C200.368 39.6616 200.092 40.4828 199.739 40.9895C198.493 40.4261 194.822 38.4763 190.768 34.2386C186.714 30.0006 185.307 25.0011 185.171 23.1311C184.925 20.3765 185.434 15.8208 189.707 14.7483C192.984 13.9257 195.623 16.7678 196.861 18.4954L197.187 16.2893ZM204.141 16.2884C201.753 14.2815 198.561 17.1927 197.167 18.9407C197.378 19.2629 197.522 19.5108 197.586 19.637L198.071 22.9251C197.101 21.4289 193.347 17.3548 190.632 19.636C187.992 21.8552 192.403 29.0494 196.117 34.1731C199.716 29.6156 207.443 19.0634 204.141 16.2884Z" fill="#FF3052"/>
<path d="M311.395 19.7351H318.427V23.8191H313.707C316.002 25.317 317.52 27.9063 317.52 30.8513C317.52 35.4866 313.762 39.2438 309.127 39.2439C304.491 39.2438 300.733 35.4867 300.733 30.8513C300.733 27.9065 302.251 25.3171 304.546 23.8191H299.826V19.7351H307.311V15.4255H311.395V19.7351ZM309.353 26.5408C307.098 26.5408 305.27 28.3688 305.27 30.6238C305.27 32.8789 307.098 34.7078 309.353 34.7078C311.608 34.7077 313.436 32.8789 313.436 30.6238C313.436 28.3688 311.608 26.5408 309.353 26.5408Z" fill="white"/>
<path d="M386.394 42.5565H383.19C382.045 42.5565 381.116 43.4847 381.116 44.6298C381.116 45.775 382.045 46.704 383.19 46.704H386.394V50.8505H367.165V46.704H369.992C371.138 46.704 372.067 45.775 372.067 44.6298C372.067 43.4847 371.138 42.5565 369.992 42.5565H367.165V38.786H386.394V42.5565ZM376.781 41.4257C376.052 41.4257 375.46 42.0162 375.46 42.745V46.5155C375.46 47.2442 376.052 47.8348 376.781 47.8348C377.509 47.8346 378.1 47.2441 378.1 46.5155V42.745C378.1 42.0163 377.509 41.4259 376.781 41.4257Z" fill="white"/>
</svg>
