<svg width="225" height="55" viewBox="0 0 225 55" fill="none" xmlns="http://www.w3.org/2000/svg">
<rect width="225" height="55" rx="5" fill="#B7B7B7"/>
<path d="M92.816 20.576H94.944V35.44H92.816V20.576ZM86.96 21.616C87.7173 21.616 88.3893 21.8347 88.976 22.272C89.5627 22.6987 90.0213 23.312 90.352 24.112C90.6933 24.9013 90.864 25.8347 90.864 26.912C90.864 28 90.6933 28.944 90.352 29.744C90.0213 30.5333 89.5627 31.1467 88.976 31.584C88.3893 32.0107 87.7173 32.224 86.96 32.224C86.2133 32.224 85.5467 32.0107 84.96 31.584C84.3733 31.1467 83.9093 30.5333 83.568 29.744C83.2373 28.944 83.072 28 83.072 26.912C83.072 25.8347 83.2373 24.9013 83.568 24.112C83.9093 23.312 84.3733 22.6987 84.96 22.272C85.5467 21.8347 86.2133 21.616 86.96 21.616ZM86.96 23.552C86.5973 23.552 86.2773 23.68 86 23.936C85.7227 24.192 85.504 24.5707 85.344 25.072C85.1947 25.5627 85.12 26.176 85.12 26.912C85.12 27.6373 85.1947 28.256 85.344 28.768C85.504 29.2693 85.7227 29.648 86 29.904C86.2773 30.16 86.5973 30.288 86.96 30.288C87.3333 30.288 87.6587 30.16 87.936 29.904C88.2133 29.648 88.4267 29.2693 88.576 28.768C88.736 28.256 88.816 27.6373 88.816 26.912C88.816 26.176 88.736 25.5627 88.576 25.072C88.4267 24.5707 88.2133 24.192 87.936 23.936C87.6587 23.68 87.3333 23.552 86.96 23.552ZM106.111 24.432H109.551V26.144H106.111V24.432ZM108.431 20.608H110.575V31.408H108.431V20.608ZM100.783 33.456H110.911V35.168H100.783V33.456ZM100.783 30.496H102.911V34.464H100.783V30.496ZM101.599 22.544H103.327V23.472C103.327 24.4107 103.177 25.3013 102.879 26.144C102.58 26.9867 102.121 27.728 101.503 28.368C100.895 28.9973 100.111 29.472 99.1508 29.792L98.0948 28.096C98.7028 27.8933 99.2254 27.632 99.6628 27.312C100.111 26.9813 100.473 26.608 100.751 26.192C101.039 25.776 101.252 25.3387 101.391 24.88C101.529 24.4213 101.599 23.952 101.599 23.472V22.544ZM102.047 22.544H103.743V23.472C103.743 24.048 103.86 24.624 104.095 25.2C104.329 25.7653 104.692 26.2827 105.183 26.752C105.684 27.2107 106.324 27.5733 107.103 27.84L106.063 29.488C105.145 29.1787 104.388 28.7253 103.791 28.128C103.204 27.52 102.767 26.816 102.479 26.016C102.191 25.2053 102.047 24.3573 102.047 23.472V22.544ZM98.6708 21.6H106.639V23.296H98.6708V21.6ZM123.214 20.608H125.342V31.312H123.214V20.608ZM124.75 24.64H127.31V26.384H124.75V24.64ZM114.238 27.184H115.47C116.547 27.184 117.464 27.1733 118.222 27.152C118.99 27.12 119.672 27.072 120.27 27.008C120.878 26.944 121.475 26.848 122.062 26.72L122.27 28.4C121.672 28.5387 121.059 28.6453 120.43 28.72C119.811 28.784 119.107 28.832 118.318 28.864C117.528 28.8853 116.579 28.896 115.47 28.896H114.238V27.184ZM114.238 21.776H120.878V23.472H116.366V28.08H114.238V21.776ZM115.79 33.456H125.87V35.168H115.79V33.456ZM115.79 30.176H117.934V34.32H115.79V30.176ZM134.924 24.512H137.916V26.192H134.924V24.512ZM134.844 28.208H137.868V29.904H134.844V28.208ZM139.932 20.592H141.964V35.408H139.932V20.592ZM136.892 20.912H138.876V34.752H136.892V20.912ZM133.548 22.336H135.58C135.58 23.744 135.415 25.056 135.084 26.272C134.764 27.4773 134.21 28.5867 133.42 29.6C132.642 30.6133 131.564 31.5253 130.188 32.336L128.988 30.848C130.108 30.176 130.999 29.4453 131.66 28.656C132.332 27.856 132.812 26.976 133.1 26.016C133.399 25.0453 133.548 23.9627 133.548 22.768V22.336ZM129.836 22.336H134.252V24.048H129.836V22.336Z" fill="white"/>
</svg>
