<svg width="225" height="55" viewBox="0 0 225 55" fill="none" xmlns="http://www.w3.org/2000/svg">
<rect width="225" height="55" rx="5" fill="#EC1333"/>
<path d="M92.112 20.576H94.256V35.44H92.112V20.576ZM93.792 26.064H96.4V27.824H93.792V26.064ZM83.216 30.128H84.464C85.3067 30.128 86.096 30.1173 86.832 30.096C87.568 30.064 88.2827 30.016 88.976 29.952C89.6693 29.8773 90.3787 29.776 91.104 29.648L91.312 31.408C90.5653 31.536 89.8293 31.6373 89.104 31.712C88.3893 31.7867 87.6533 31.8347 86.896 31.856C86.1387 31.8773 85.328 31.888 84.464 31.888H83.216V30.128ZM83.216 21.952H90.128V23.664H85.344V30.96H83.216V21.952ZM104.863 20.88C105.961 20.88 106.911 20.9973 107.711 21.232C108.511 21.456 109.129 21.7867 109.567 22.224C110.015 22.6507 110.239 23.1627 110.239 23.76C110.239 24.3573 110.015 24.8747 109.567 25.312C109.129 25.7387 108.511 26.0693 107.711 26.304C106.911 26.5387 105.961 26.656 104.863 26.656C103.785 26.656 102.841 26.5387 102.031 26.304C101.22 26.0693 100.596 25.7387 100.159 25.312C99.7214 24.8747 99.5028 24.3573 99.5028 23.76C99.5028 23.1627 99.7214 22.6507 100.159 22.224C100.596 21.7867 101.22 21.456 102.031 21.232C102.841 20.9973 103.785 20.88 104.863 20.88ZM104.863 22.512C104.201 22.512 103.631 22.56 103.151 22.656C102.671 22.7413 102.308 22.8747 102.063 23.056C101.828 23.2373 101.711 23.472 101.711 23.76C101.711 24.0373 101.828 24.272 102.063 24.464C102.308 24.6453 102.671 24.784 103.151 24.88C103.631 24.9653 104.201 25.008 104.863 25.008C105.545 25.008 106.121 24.9653 106.591 24.88C107.06 24.784 107.417 24.6453 107.663 24.464C107.908 24.272 108.031 24.0373 108.031 23.76C108.031 23.472 107.908 23.2373 107.663 23.056C107.417 22.8747 107.06 22.7413 106.591 22.656C106.121 22.56 105.545 22.512 104.863 22.512ZM99.7268 30.208H109.967V35.264H99.7268V30.208ZM107.887 31.888H101.807V33.584H107.887V31.888ZM98.1588 27.504H111.567V29.168H98.1588V27.504ZM123.214 20.608H125.342V31.312H123.214V20.608ZM124.75 24.64H127.31V26.384H124.75V24.64ZM114.238 27.184H115.47C116.547 27.184 117.464 27.1733 118.222 27.152C118.99 27.12 119.672 27.072 120.27 27.008C120.878 26.944 121.475 26.848 122.062 26.72L122.27 28.4C121.672 28.5387 121.059 28.6453 120.43 28.72C119.811 28.784 119.107 28.832 118.318 28.864C117.528 28.8853 116.579 28.896 115.47 28.896H114.238V27.184ZM114.238 21.776H120.878V23.472H116.366V28.08H114.238V21.776ZM115.79 33.456H125.87V35.168H115.79V33.456ZM115.79 30.176H117.934V34.32H115.79V30.176ZM134.924 24.512H137.916V26.192H134.924V24.512ZM134.844 28.208H137.868V29.904H134.844V28.208ZM139.932 20.592H141.964V35.408H139.932V20.592ZM136.892 20.912H138.876V34.752H136.892V20.912ZM133.548 22.336H135.58C135.58 23.744 135.415 25.056 135.084 26.272C134.764 27.4773 134.21 28.5867 133.42 29.6C132.642 30.6133 131.564 31.5253 130.188 32.336L128.988 30.848C130.108 30.176 130.999 29.4453 131.66 28.656C132.332 27.856 132.812 26.976 133.1 26.016C133.399 25.0453 133.548 23.9627 133.548 22.768V22.336ZM129.836 22.336H134.252V24.048H129.836V22.336Z" fill="white"/>
</svg>
