<svg width="582" height="297" viewBox="0 0 582 297" fill="none" xmlns="http://www.w3.org/2000/svg">
<rect x="438" y="246" width="144" height="51" rx="12" fill="#EC1333"/>
<path d="M474.883 264.031H481.234C482.5 264.031 483.582 264.27 484.48 264.746C485.387 265.223 486.07 265.887 486.531 266.738C486.992 267.582 487.223 268.555 487.223 269.656C487.223 270.75 486.988 271.719 486.52 272.562C486.051 273.398 485.363 274.059 484.457 274.543C483.559 275.02 482.469 275.258 481.188 275.258H476.969V272.738H480.777C481.527 272.738 482.148 272.609 482.641 272.352C483.141 272.086 483.508 271.723 483.742 271.262C483.984 270.801 484.105 270.266 484.105 269.656C484.105 269.031 483.984 268.492 483.742 268.039C483.508 267.578 483.141 267.223 482.641 266.973C482.141 266.715 481.516 266.586 480.766 266.586H477.93V281H474.883V264.031ZM493.942 281H490.895V264.031H493.942V281ZM509.732 269.75C509.623 269.086 509.377 268.512 508.994 268.027C508.619 267.543 508.142 267.176 507.564 266.926C506.994 266.668 506.365 266.539 505.677 266.539C504.748 266.539 503.923 266.773 503.205 267.242C502.494 267.703 501.935 268.383 501.529 269.281C501.13 270.18 500.931 271.258 500.931 272.516C500.931 273.789 501.13 274.875 501.529 275.773C501.935 276.664 502.494 277.34 503.205 277.801C503.923 278.262 504.744 278.492 505.666 278.492C506.345 278.492 506.966 278.371 507.529 278.129C508.091 277.879 508.564 277.52 508.947 277.051C509.337 276.582 509.599 276.023 509.732 275.375L512.814 275.387C512.658 276.473 512.263 277.461 511.63 278.352C510.998 279.242 510.166 279.945 509.134 280.461C508.103 280.977 506.935 281.234 505.63 281.234C504.138 281.234 502.802 280.887 501.623 280.191C500.451 279.488 499.533 278.48 498.869 277.168C498.205 275.848 497.873 274.297 497.873 272.516C497.873 270.719 498.209 269.164 498.88 267.852C499.552 266.539 500.47 265.535 501.634 264.84C502.806 264.145 504.138 263.797 505.63 263.797C506.88 263.797 508.017 264.035 509.041 264.512C510.072 264.98 510.912 265.664 511.56 266.562C512.216 267.453 512.634 268.516 512.814 269.75H509.732ZM516.639 264.031H519.686V271.848H519.909L526.53 264.031H530.28L523.694 271.648L530.338 281H526.647L521.573 273.711L519.686 275.949V281H516.639V264.031ZM543.531 276.02H540.883L540.625 264.031H543.801L543.531 276.02ZM542.219 281.188C541.891 281.188 541.586 281.105 541.305 280.941C541.023 280.77 540.801 280.547 540.637 280.273C540.48 279.992 540.402 279.688 540.402 279.359C540.402 279.039 540.48 278.742 540.637 278.469C540.801 278.188 541.023 277.969 541.305 277.812C541.586 277.648 541.891 277.566 542.219 277.566C542.539 277.566 542.836 277.648 543.109 277.812C543.391 277.969 543.613 278.188 543.777 278.469C543.941 278.742 544.023 279.039 544.023 279.359C544.023 279.688 543.941 279.992 543.777 280.273C543.613 280.547 543.391 280.77 543.109 280.941C542.836 281.105 542.539 281.188 542.219 281.188Z" fill="white"/>
<path d="M-1.87959e-06 38L43.5 0.760908L43.5 75.2391L-1.87959e-06 38Z" fill="url(#paint0_linear_0_1)"/>
<defs>
<linearGradient id="paint0_linear_0_1" x1="5.10169e-06" y1="38" x2="58" y2="38" gradientUnits="userSpaceOnUse">
<stop stop-color="#D9324A"/>
<stop offset="1" stop-color="#D9324A" stop-opacity="0"/>
</linearGradient>
</defs>
</svg>

