<svg width="72" height="90" viewBox="0 0 72 90" fill="none" xmlns="http://www.w3.org/2000/svg">
<path d="M0.667969 72.2256H7.30078C8.56641 72.2256 9.65625 72.4678 10.5703 72.9521C11.4922 73.4287 12.1914 74.1006 12.668 74.9678C13.1445 75.835 13.3828 76.8311 13.3828 77.9561C13.3828 79.0889 13.1367 80.085 12.6445 80.9443C12.1602 81.7959 11.4531 82.4639 10.5234 82.9482C9.60156 83.4248 8.5 83.6631 7.21875 83.6631H2.95312V80.8271H6.66797C7.34766 80.8271 7.91797 80.71 8.37891 80.4756C8.84766 80.2334 9.19531 79.8975 9.42188 79.4678C9.64844 79.0381 9.76172 78.5342 9.76172 77.9561C9.76172 77.3779 9.64844 76.8779 9.42188 76.4561C9.19531 76.0264 8.84766 75.6982 8.37891 75.4717C7.91797 75.2373 7.34375 75.1201 6.65625 75.1201H4.18359V89.1943H0.667969V72.2256ZM20.3367 89.1943H16.8211V72.2256H20.3367V89.1943ZM35.7516 78.1436C35.6656 77.5186 35.4547 76.9795 35.1187 76.5264C34.7906 76.0654 34.3609 75.7139 33.8297 75.4717C33.2984 75.2295 32.7086 75.1084 32.0602 75.1084C31.1773 75.1084 30.4039 75.3311 29.7398 75.7764C29.0836 76.2139 28.5719 76.8545 28.2047 77.6982C27.8375 78.5342 27.6539 79.5381 27.6539 80.71C27.6539 81.9131 27.8375 82.9326 28.2047 83.7686C28.5719 84.5967 29.0836 85.2295 29.7398 85.667C30.4039 86.0967 31.1656 86.3115 32.025 86.3115C32.6734 86.3115 33.2555 86.1943 33.7711 85.96C34.2945 85.7256 34.7281 85.3936 35.0719 84.9639C35.4156 84.5264 35.6422 84.0068 35.7516 83.4053L39.3258 83.4404C39.193 84.5029 38.8102 85.4912 38.1773 86.4053C37.5523 87.3193 36.7086 88.0537 35.6461 88.6084C34.5836 89.1553 33.3609 89.4287 31.9781 89.4287C30.4625 89.4287 29.107 89.085 27.9117 88.3975C26.7164 87.7021 25.7789 86.6982 25.0992 85.3857C24.4273 84.0654 24.0914 82.5068 24.0914 80.71C24.0914 78.8975 24.4312 77.335 25.1109 76.0225C25.7984 74.71 26.7359 73.71 27.9234 73.0225C29.1187 72.335 30.4703 71.9912 31.9781 71.9912C33.2828 71.9912 34.4625 72.2334 35.5172 72.7178C36.5719 73.2021 37.4273 73.9092 38.0836 74.8389C38.7477 75.7607 39.1617 76.8623 39.3258 78.1436H35.7516ZM42.9867 72.2256H46.5023V79.749H46.725L52.8891 72.2256H57.1312L50.7914 79.8193L57.2016 89.1943H52.9711L48.2719 82.1748L46.5023 84.3428V89.1943H42.9867V72.2256ZM70.5586 84.1201H67.5703L67.2539 72.2256H70.8867L70.5586 84.1201ZM69.0703 89.4053C68.7188 89.4053 68.3906 89.3154 68.0859 89.1357C67.7812 88.9482 67.5391 88.7061 67.3594 88.4092C67.1875 88.1045 67.1016 87.7764 67.1016 87.4248C67.1016 87.0811 67.1875 86.7607 67.3594 86.4639C67.5391 86.1592 67.7812 85.9209 68.0859 85.749C68.3906 85.5771 68.7188 85.4912 69.0703 85.4912C69.4141 85.4912 69.7344 85.5771 70.0312 85.749C70.3359 85.9209 70.5781 86.1592 70.7578 86.4639C70.9453 86.7607 71.0391 87.0811 71.0391 87.4248C71.0391 87.7764 70.9453 88.1045 70.7578 88.4092C70.5781 88.7061 70.3359 88.9482 70.0312 89.1357C69.7344 89.3154 69.4141 89.4053 69.0703 89.4053Z" fill="white"/>
<path d="M40.9339 48.8487C31.655 42.7851 8.79254 20.5328 14.0001 9.50579C18.6336 -0.305652 30.8118 4.71132 35.0295 9.50579C38.263 4.42927 48.5 -2.30566 55.696 5.69836C66.6716 17.9064 38.8252 42.5031 24.9068 55.1943" stroke="white" stroke-width="3.6" stroke-linecap="round"/>
</svg>
