<svg width="66" height="38" viewBox="0 0 66 38" fill="none" xmlns="http://www.w3.org/2000/svg">
<path d="M38.9766 0.959999L19.9686 37.536L0.960624 0.959999H11.0406L20.2086 19.632L29.2326 0.959999H38.9766ZM41.0016 33.168V24.144C43.3056 25.84 45.3536 27.072 47.1456 27.84C48.9376 28.576 50.6336 28.944 52.2336 28.944C53.6736 28.944 54.7776 28.704 55.5456 28.224C56.3136 27.744 56.6976 27.072 56.6976 26.208C56.6976 25.6 56.5056 25.072 56.1216 24.624C55.7696 24.176 55.0656 23.728 54.0096 23.28L48.1056 20.688C45.4176 19.44 43.5296 18.08 42.4416 16.608C41.3536 15.136 40.8096 13.344 40.8096 11.232C40.8096 8.032 41.9936 5.424 44.3616 3.408C46.7296 1.392 49.7536 0.383998 53.4336 0.383998C55.2576 0.383998 57.0816 0.703998 58.9056 1.344C60.7296 1.984 62.1376 2.784 63.1296 3.744V12.912C61.5616 11.376 59.8976 10.192 58.1376 9.36C56.3776 8.496 54.6816 8.064 53.0496 8.064C51.9296 8.064 51.0496 8.272 50.4096 8.688C49.8016 9.104 49.4976 9.696 49.4976 10.464C49.4976 10.944 49.6416 11.376 49.9296 11.76C50.2176 12.112 50.6656 12.416 51.2736 12.672L56.6016 14.928C59.8336 16.304 62.0896 17.776 63.3696 19.344C64.6496 20.912 65.2896 22.88 65.2896 25.248C65.2896 28.672 64.0576 31.424 61.5936 33.504C59.1616 35.552 55.9776 36.576 52.0416 36.576C50.0256 36.576 48.0416 36.272 46.0896 35.664C44.1696 35.056 42.4736 34.224 41.0016 33.168Z" fill="#EC1333"/>
</svg>
