<svg width="447" height="48" viewBox="0 0 447 48" fill="none" xmlns="http://www.w3.org/2000/svg">
<rect x="392.489" y="36.1205" width="36.4909" height="4.93121" transform="rotate(180 392.489 36.1205)" fill="#161616"/>
<rect x="29.5872" y="30.2034" width="29.5872" height="4.93121" transform="rotate(180 29.5872 30.2034)" fill="#161616"/>
<path d="M85.3154 32.7931L85.3154 3.69894L89.7535 3.69894L89.7535 33.7793L85.3154 32.7931Z" fill="#161616"/>
<path d="M261.514 44.2156L261.514 3.41833L265.484 3.41833L265.484 44.2156L261.514 44.2156Z" fill="#FF3052"/>
<rect x="51.7769" y="37.1071" width="29.5872" height="4.43809" transform="rotate(-90 51.7769 37.1071)" fill="#161616"/>
<rect x="91.2316" y="33.2858" width="29.5872" height="4.43809" transform="rotate(-90 91.2316 33.2858)" fill="#161616"/>
<path d="M267.248 44.4365L267.248 3.41863L271.217 3.41863L271.217 44.4365L267.248 44.4365Z" fill="#FF3052"/>
<rect x="231.52" y="32.087" width="28.2273" height="4.41052" transform="rotate(-90 231.52 32.087)" fill="#FF3052"/>
<rect x="118.001" y="37" width="34" height="4.44" transform="rotate(-90 118.001 37)" fill="#161616"/>
<rect x="146.001" y="37" width="34" height="4.44" transform="rotate(-90 146.001 37)" fill="#161616"/>
<rect x="171.001" y="36" width="34" height="4.44" transform="rotate(-90 171.001 36)" fill="#161616"/>
<rect x="349.001" y="38" width="34" height="4.44" transform="rotate(-90 349.001 38)" fill="#161616"/>
<rect x="442.001" y="40" width="34" height="4.44" transform="rotate(-90 442.001 40)" fill="#161616"/>
<rect x="413.501" y="33" width="29" height="4.44" transform="rotate(-90 413.501 33)" fill="#161616"/>
<rect x="272.696" y="24.7788" width="32.546" height="4.43809" fill="#161616"/>
<rect x="57.6945" y="37.1069" width="29.5872" height="4.43809" transform="rotate(-90 57.6945 37.1069)" fill="#161616"/>
<rect x="370.793" y="32.1758" width="8.87617" height="4.93121" transform="rotate(-90 370.793 32.1758)" fill="#161616"/>
<rect x="12.3275" y="28.724" width="7.39681" height="4.93121" transform="rotate(-90 12.3275 28.724)" fill="#161616"/>
<rect x="86.7944" y="16.52" width="5.91745" height="4.43808" fill="#161616"/>
<rect x="436.363" y="19.3271" width="5.91745" height="4.43808" fill="#161616"/>
<rect x="264.16" y="19.2964" width="5.29262" height="3.96947" fill="#FF3052"/>
<rect x="227.55" y="19.2964" width="5.29262" height="3.96947" fill="#FF3052"/>
<rect x="227.55" y="13.1219" width="5.29262" height="3.96947" fill="#FF3052"/>
<rect x="174.816" y="14.084" width="5.91745" height="4.43808" fill="#161616"/>
<rect x="352.575" y="19.3408" width="5.91745" height="4.43808" fill="#161616"/>
<rect x="53.2559" y="20.3407" width="5.91745" height="4.43808" fill="#161616"/>
<path d="M125.948 10.6324H131.007H135.625L143.75 10.6324V14.3801H139.627C140.252 14.8798 141.614 15.317 142.251 17.0035C143.01 19.0154 142.063 27.251 142.001 29H137.001C137.126 27.5633 138.335 18.9819 137.586 17.7826C136.836 16.5834 134.381 16.0532 133.001 17L130.001 26.9644H125.001L129.508 14.3801H125.948V10.6324Z" fill="#161616"/>
<path d="M72.6272 0C77.1387 0 77.3713 3.92098 77.5002 7.5C77.6034 10.3632 76.1555 15.6795 74.9954 18.0996L75.8206 19.417C77.6697 21.2662 78.8805 21.9999 81.0002 22C82.3658 22 85.0273 21.6475 85.5002 21L89.2551 22.9053C88.6966 23.996 86.2437 25.9182 81.5002 26C76.7569 26.0817 73.6603 23.6702 72.5002 22C72.0002 22.7012 71.0004 23.4998 68.4241 24.9648C65.9068 26.3963 62.5734 27.6711 61.0266 27.7393V22.9053C62.5733 22.9053 64.0362 22.1041 65.5002 21.3721C67.3489 20.4477 69.7903 18.3054 69.5344 18.0996C69.2766 17.8951 66.6985 11.7597 66.1829 7.46484C65.6673 3.17013 68.116 0.000172435 72.6272 0ZM71.9827 3.68164C71.1996 3.68164 70.5005 4.49998 70.5647 6.33984C70.5005 8.99996 71.9827 14.2139 71.9827 14.2139C71.9827 14.2139 73.4006 8.59886 73.4006 6.33984C73.4006 4.08087 72.7657 3.68165 71.9827 3.68164Z" fill="#161616"/>
<path d="M393.551 28.4255L399.311 6.89862H404.005L402.511 14.0743C403.436 14.2071 405.797 14.9911 407.845 17.0641C409.893 19.1371 409.836 25.5021 409.552 28.4255H404.645V23.4424C404.645 19.9344 402.369 18.5258 401.231 18.26L398.244 28.4255H393.551Z" fill="#161616"/>
<path d="M363.889 16.9284V11.2575C366.19 10.2712 372.173 8.64394 377.696 10.0247C383.219 11.4054 383.12 18.4899 382.381 21.8596H377.696C378.107 19.7227 378.337 15.2024 375.97 14.2162C373.603 13.23 366.93 15.6134 363.889 16.9284Z" fill="#161616"/>
<path d="M5.42419 14.956V9.28507C7.72542 8.29883 13.7086 6.67153 19.2316 8.05227C24.7545 9.433 24.6559 16.5175 23.9162 19.8872H19.2316C19.6425 17.7503 19.8726 13.23 17.5056 12.2438C15.1387 11.2576 8.4651 13.641 5.42419 14.956Z" fill="#161616"/>
<path d="M49.8047 15.9027V10.9715H41.4217C37.9699 11.3002 31.0662 13.1905 31.0662 21.0805C31.0662 28.9704 37.9699 31.436 42.6545 31.6826H51.7772V26.7514H42.6545C40.682 26.7514 35.9974 25.0254 35.9974 21.0805C35.9974 17.1355 40.7642 15.9027 42.6545 15.9027H49.8047Z" fill="#161616"/>
<path d="M17.4449 32C21.8633 32 25.4458 35.5817 25.4459 40C25.4459 44.4184 21.8633 48 17.4449 48H13.0006C8.58232 47.9999 5.00061 44.4183 5.00061 40C5.0007 35.5818 8.58238 32.0001 13.0006 32H17.4449ZM14.0153 35.8154C11.783 35.8156 9.97327 37.6251 9.97327 39.8574C9.97343 42.0896 11.7831 43.8993 14.0153 43.8994H16.441C18.6733 43.8993 20.4829 42.0896 20.483 39.8574C20.483 37.6251 18.6734 35.8155 16.441 35.8154H14.0153Z" fill="#161616"/>
<path d="M89.7958 38.6888C89.7958 43.058 86.2538 46.5997 81.8847 46.6C77.5154 46.6 73.9726 43.0582 73.9726 38.6888L73.9726 34.2933C73.9728 29.9241 77.5155 26.3822 81.8847 26.3822C86.2537 26.3824 89.7957 29.9243 89.7958 34.2933L89.7958 38.6888ZM85.8447 34.9623C85.8447 32.7332 84.0375 30.9254 81.8085 30.9252C79.5793 30.9252 77.7714 32.7331 77.7714 34.9623L77.7714 37.6527C77.7715 39.8819 79.5794 41.6888 81.8085 41.6888C84.0375 41.6886 85.8446 39.8817 85.8447 37.6527L85.8447 34.9623Z" fill="#161616"/>
<path d="M115.684 21.953C115.684 26.3223 112.142 29.8641 107.773 29.8641C103.404 29.8641 99.862 26.3223 99.862 21.953L99.862 17.5575C99.8621 13.1883 103.404 9.64636 107.773 9.64636C112.142 9.64641 115.684 13.1883 115.684 17.5575L115.684 21.953ZM111.34 17.995C111.339 16.0137 109.733 14.4073 107.752 14.4071C105.77 14.4071 104.164 16.0135 104.164 17.995L104.164 20.6864C104.164 22.6677 105.77 24.2733 107.752 24.2733C109.733 24.2731 111.339 22.6676 111.34 20.6864L111.34 17.995Z" fill="#161616"/>
<path d="M437.392 23.2507C437.392 27.6198 433.85 31.1616 429.481 31.1618C425.112 31.1618 421.569 27.62 421.569 23.2507L421.569 18.8552C421.569 14.4859 425.112 10.944 429.481 10.944C433.85 10.9443 437.392 14.4861 437.392 18.8552L437.392 23.2507ZM433.896 20.0671C433.896 17.7523 432.02 15.8759 429.705 15.8757C427.39 15.8757 425.512 17.7522 425.512 20.0671L425.512 22.5329C425.513 24.8477 427.39 26.7243 429.705 26.7243C432.019 26.7241 433.896 24.8476 433.896 22.5329L433.896 20.0671Z" fill="#161616"/>
<path d="M166.606 22.3632H168.405V26.9052H153.118V9.64636H168.405L166.606 22.3632ZM158.269 14.0839V22.0839H162.709V14.0839H158.269Z" fill="#161616"/>
<path d="M159.036 35.2748L162.915 32.6915C163.329 33.4693 163.59 35.9852 167.399 39.4187C170.806 42.4892 175.217 42.6982 177.774 41.6611V46.5943C175.425 46.94 170.09 47.4913 165.446 44.1509C162.032 41.6945 159.589 37.2625 159.036 35.2748Z" fill="#161616"/>
<path d="M278.121 34.1484L281.82 32.1759C282.235 32.9537 282.659 35.9473 286.258 38.5865C289.956 41.2986 294.303 41.596 296.86 40.559V45.2436C294.51 45.5893 289.463 46.1078 284.532 43.0246C280.965 40.7945 278.674 36.1361 278.121 34.1484Z" fill="#161616"/>
<path d="M275.655 8.99934L279.353 7.02686C279.768 7.80467 280.192 10.7983 283.791 13.4374C287.489 16.1496 291.836 16.447 294.393 15.4099V20.0946C292.043 20.4402 286.996 20.9587 282.065 17.8755C278.498 15.6454 276.207 10.9871 275.655 8.99934Z" fill="#161616"/>
<path d="M220.917 36.1207L224.616 34.1482C225.031 34.926 225.455 37.9196 229.054 40.5588C232.752 43.2709 237.099 43.5683 239.656 42.5312V47.2159C237.306 47.5616 232.259 48.0801 227.328 44.9968C223.761 42.7667 221.47 38.1084 220.917 36.1207Z" fill="#FF3052"/>
<path d="M255.461 7.28979C255.258 7.35268 255.073 7.58291 253.578 8.70581C252.422 9.57344 250.565 11.0727 249.259 12.2615C251.018 11.6954 255.12 11.3125 257.459 14.3054C260.382 18.0464 259.262 22.4979 258.004 24.5027C256.797 26.4246 252.643 29.4583 247.709 25.6658C243.761 22.6318 244.914 16.9037 245.984 14.4187C245.37 14.8103 244.394 15.2718 242.899 16.3396C241.739 17.1684 240.514 18.9784 239.482 19.9705L237.696 16.8279C237.704 16.5558 239.359 15.3495 240.862 14.3054C243.541 12.4446 244.655 12.0687 246.219 11.2263C246.71 10.4242 247.038 9.95234 249.259 8.0603C250.117 7.33012 250.803 6.50942 252.552 5.62378L255.461 7.28979ZM254.161 16.7595C253.192 16.2542 252.526 16.962 252.309 17.3875C252.092 16.962 251.426 16.254 250.457 16.7595C249.481 17.2688 249.343 18.6336 249.396 19.2527C249.458 19.9794 250.001 21.2691 250.722 22.1179C251.433 22.9544 252.066 23.6528 252.304 23.9099V23.9216C252.306 23.9198 252.308 23.9176 252.309 23.9158C252.311 23.9176 252.312 23.9198 252.314 23.9216V23.9099C252.553 23.6526 253.185 22.9541 253.896 22.1179C254.618 21.2691 255.16 19.9793 255.222 19.2527C255.275 18.6335 255.137 17.2688 254.161 16.7595Z" fill="#FF3052"/>
<path fill-rule="evenodd" clip-rule="evenodd" d="M206.192 6.78345C210.857 5.61257 214.334 11.2708 214.757 12.0969L215.284 15.6706C214.23 14.0444 210.149 9.61686 207.199 12.0965C202.584 15.9754 217.789 33.838 217.789 33.838C217.789 33.838 217.485 34.7476 217.097 35.3058C215.743 34.6935 211.753 32.5735 207.347 27.9672C202.94 23.3609 201.411 17.9275 201.263 15.8951C200.996 12.901 201.549 7.94915 206.192 6.78345Z" fill="#FF3052"/>
<path fill-rule="evenodd" clip-rule="evenodd" d="M222.889 3.1449C218.224 1.97402 214.747 7.63221 214.324 8.45835L213.797 12.032C214.851 10.4058 218.932 5.97831 221.882 8.45791C226.497 12.3368 211.292 30.1994 211.292 30.1994C211.292 30.1994 211.596 31.1091 211.984 31.6672C213.338 31.0549 217.328 28.9349 221.734 24.3286C226.141 19.7223 227.67 14.289 227.818 12.2565C228.085 9.26247 227.532 4.3106 222.889 3.1449Z" fill="#FF3052"/>
<path d="M339.96 12.417H347.166V16.6016H342.328C344.679 18.1366 346.235 20.7898 346.235 23.8076C346.235 28.5579 342.384 32.4092 337.633 32.4092C332.883 32.409 329.033 28.5578 329.033 23.8076C329.033 20.7896 330.588 18.1366 332.94 16.6016H328.104V12.417H335.775V8H339.96V12.417ZM337.867 19.3906C335.556 19.3906 333.682 21.2642 333.682 23.5752C333.682 25.886 335.556 27.7588 337.867 27.7588C340.177 27.7586 342.05 25.8859 342.05 23.5752C342.05 21.2644 340.178 19.3908 337.867 19.3906Z" fill="#161616"/>
<path d="M418.037 37.0082H414.554C413.31 37.0082 412.301 38.0175 412.3 39.2621C412.3 40.5069 413.31 41.516 414.554 41.516H418.037V46.0238H397.137V41.516H400.211C401.455 41.516 402.465 40.5069 402.465 39.2621C402.464 38.0175 401.455 37.0082 400.211 37.0082H397.137V32.9105H418.037V37.0082ZM407.588 35.7797C406.796 35.7797 406.153 36.4213 406.153 37.2133V41.3119C406.153 42.1038 406.796 42.7455 407.588 42.7455C408.38 42.7455 409.022 42.1039 409.022 41.3119V37.2133C409.022 36.4212 408.38 35.7797 407.588 35.7797Z" fill="#161616"/>
</svg>
